<svg width="204" height="38" viewBox="0 0 204 38" fill="none" xmlns="http://www.w3.org/2000/svg">
<path d="M41.6406 31V8.09375H48.5625L52.7188 23.7188L56.8281 8.09375H63.7656V31H59.4688V12.9688L54.9219 31H50.4688L45.9375 12.9688V31H41.6406ZM68.3281 8.09375H72.9531V20.5C72.9531 22.4688 73.0104 23.7448 73.125 24.3281C73.3229 25.2656 73.7917 26.0208 74.5312 26.5938C75.2812 27.1562 76.3021 27.4375 77.5938 27.4375C78.9062 27.4375 79.8958 27.1719 80.5625 26.6406C81.2292 26.099 81.6302 25.4375 81.7656 24.6562C81.901 23.875 81.9688 22.5781 81.9688 20.7656V8.09375H86.5938V20.125C86.5938 22.875 86.4688 24.8177 86.2188 25.9531C85.9688 27.0885 85.5052 28.0469 84.8281 28.8281C84.1615 29.6094 83.2656 30.2344 82.1406 30.7031C81.0156 31.1615 79.5469 31.3906 77.7344 31.3906C75.5469 31.3906 73.8854 31.1406 72.75 30.6406C71.625 30.1302 70.7344 29.474 70.0781 28.6719C69.4219 27.8594 68.9896 27.0104 68.7812 26.125C68.4792 24.8125 68.3281 22.875 68.3281 20.3125V8.09375ZM94.7344 31L89.2656 8.09375H94L97.4531 23.8281L101.641 8.09375H107.141L111.156 24.0938L114.672 8.09375H119.328L113.766 31H108.859L104.297 13.875L99.75 31H94.7344ZM121.672 8.09375H126.297V20.5C126.297 22.4688 126.354 23.7448 126.469 24.3281C126.667 25.2656 127.135 26.0208 127.875 26.5938C128.625 27.1562 129.646 27.4375 130.938 27.4375C132.25 27.4375 133.24 27.1719 133.906 26.6406C134.573 26.099 134.974 25.4375 135.109 24.6562C135.245 23.875 135.312 22.5781 135.312 20.7656V8.09375H139.938V20.125C139.938 22.875 139.812 24.8177 139.562 25.9531C139.312 27.0885 138.849 28.0469 138.172 28.8281C137.505 29.6094 136.609 30.2344 135.484 30.7031C134.359 31.1615 132.891 31.3906 131.078 31.3906C128.891 31.3906 127.229 31.1406 126.094 30.6406C124.969 30.1302 124.078 29.474 123.422 28.6719C122.766 27.8594 122.333 27.0104 122.125 26.125C121.823 24.8125 121.672 22.875 121.672 20.3125V8.09375ZM144.875 31V8.09375H149.375L158.75 23.3906V8.09375H163.047V31H158.406L149.172 16.0625V31H144.875Z" fill="#00FFC3"/>
<path d="M16.3387 13.8657C23.3405 21.7416 33.8365 33.366 33.8365 33.366C33.8365 33.366 -0.759851 38.4359 3.33714 13.8657C4.33766 7.86545 9.33691 5.98985 16.3387 13.8657Z" stroke="#00FFC3" stroke-width="5" stroke-linejoin="round"/>
<path d="M21.8372 19.8654L33.8372 33.3654V11.3654C33.8372 7.3654 31.8369 1.47076 25.8372 3.36539C18.2371 5.76536 18.3368 15.8654 21.8372 19.8654Z" stroke="#00FFC3" stroke-width="5" stroke-linejoin="round"/>
<path d="M187.498 13.8657C180.496 21.7416 170 33.366 170 33.366C170 33.366 204.597 38.4359 200.5 13.8657C199.499 7.86545 194.5 5.98985 187.498 13.8657Z" stroke="#00FFC3" stroke-width="5" stroke-linejoin="round"/>
<path d="M182 19.8654L170 33.3654V11.3654C170 7.3654 172 1.47076 178 3.36539C185.6 5.76536 185.5 15.8654 182 19.8654Z" stroke="#00FFC3" stroke-width="5" stroke-linejoin="round"/>
</svg>
